PathFileType	4	(X/Y/Z)	C:\Users\WrightLab\Desktop\Jo\P3_26.trc
DataRate	CameraRate	NumFrames	NumMarkers	Units	OrigDataRate	OrigDataStartFrame	OrigNumFrames
100.00	100.00	       15	19	mm	100.00	399	       638
Frame#	Time	Headset_Front			Headset_Back			Headset_Left			Headset_Right			Left_Shoulder			Right_Shoulder			Sternum			C7			Left Elbow			Right Elbow			Left Wrist			Right Wrist			Left ASIS			Right ASIS			S2			Left Knee			Right Knee			Left Ankle			Right Ankle			
		X1	Y1	Z1	X2	Y2	Z2	X3	Y3	Z3	X4	Y4	Z4	X5	Y5	Z5	X6	Y6	Z6	X7	Y7	Z7	X8	Y8	Z8	X9	Y9	Z9	X10	Y10	Z10	X11	Y11	Z11	X12	Y12	Z12	X13	Y13	Z13	X14	Y14	Z14	X15	Y15	Z15	X16	Y16	Z16	X17	Y17	Z17	X18	Y18	Z18	X19	Y19	Z19	

399	3.980	30.62166	1511.50000	1384.04089	143.61592	1570.07397	1218.64001				-73.46365	1540.49402	1280.35144	225.61266	1336.97522	1144.49939	-136.13843	1339.83728	1162.22473	58.60171	1231.33850	1293.04968	36.27206	1388.67822	1104.94543	298.77145	1005.15460	1132.61279	-207.76149	990.82642	1165.58557	301.18423	823.07660	1235.98035	-184.69835	824.61920	1318.52551	166.15620	877.36908	1291.36523	-87.80665	868.17804	1290.42224	43.15034	935.77905	1070.52722	200.04131	482.70035	1372.24744	-55.69801	443.99454	1135.83716	215.52876	155.25661	1418.11267	-49.07517	158.27113	947.85736	
400	3.990	32.27796	1512.26733	1394.40308	145.89500	1571.34961	1226.29260				-71.40866	1541.47961	1289.70374	228.52203	1338.91028	1153.45447	-133.50758	1341.34973	1172.28247	61.70694	1233.07764	1302.84363	39.07222	1389.73096	1114.62439	300.86566	1006.08228	1142.82532	-205.81300	992.84869	1172.56323	302.06216	824.36639	1248.32056	-183.23747	824.38275	1323.31567	168.71628	879.57288	1303.14697	-85.31503	868.70245	1302.01404	45.24508	937.29633	1082.20068	201.32323	483.59265	1381.99207	-54.53506	444.28799	1146.67273	216.36414	154.52013	1420.31580	-48.68228	162.01074	952.81006	
401	4.000	33.80803	1514.95435	1404.01721	147.49567	1572.38550	1236.92554				-69.80512	1543.15833	1299.05920	230.51674	1339.85120	1163.16003	-130.87796	1343.01843	1182.10400	64.44089	1235.21057	1312.85803	41.73588	1391.34082	1124.24451	303.10660	1007.11658	1153.96521	-203.51321	994.96136	1179.93201	304.02090	825.98743	1259.63452	-181.91057	824.06689	1327.53052	171.11519	881.28497	1313.73633	-82.52823	869.59540	1313.37085	46.19077	939.32642	1093.42517	203.68944	484.73044	1388.88086	-53.25904	444.55508	1159.04993	217.46053	154.63449	1423.22168	-48.50471	166.46382	959.39410	
402	4.010	35.28985	1516.78821	1413.95300	149.38579	1574.89355	1245.48743				-68.01441	1544.82996	1308.33130	233.52730	1341.97156	1172.44641	-128.27538	1345.23352	1191.69751	66.77669	1237.39429	1322.93323	44.04261	1392.91028	1133.79907	305.41437	1009.19965	1165.38977	-202.05673	997.77240	1186.95923	304.78592	828.47223	1271.73621	-180.64087	824.21155	1332.22534	173.47711	883.90363	1325.36975	-80.05901	870.93787	1324.94702	47.64425	941.04626	1104.20654	205.54523	485.36603	1396.66284	-52.52068	444.54340	1173.02954	218.01616	154.63969	1425.93970	-48.52888	171.23306	966.11426	
403	4.020	36.90153	1518.65723	1423.14709	151.87457	1581.19031	1263.29993				-66.62291	1546.54089	1317.75842	236.03751	1344.56665	1182.57007	-125.82330	1347.28442	1201.40149	69.85838	1239.28662	1332.64478	46.78070	1394.73425	1143.76465	307.07394	1011.66138	1176.89209	-200.53905	1001.01337	1194.25696	307.27313	831.14398	1283.57361	-179.59941	824.83221	1335.79871	175.12248	887.14227	1336.44153	-78.02294	872.79834	1335.94690	48.41859	943.59814	1115.82898	206.59196	485.90973	1402.69446	-51.73464	445.17075	1188.30542	218.63954	154.64226	1428.86743	-48.10135	175.77310	974.44519	
404	4.030	38.21462	1520.81323	1432.77002	153.69911	1583.70959	1272.32288				-65.11786	1548.50671	1326.96777	238.40897	1346.56165	1192.87317	-123.22374	1349.76233	1210.68372	71.66165	1242.35730	1342.85803	48.87217	1396.74536	1152.92651	309.17410	1013.71948	1188.19958	-198.74306	1004.02997	1201.28809	307.95905	833.74915	1295.54211	-178.72737	825.67523	1340.15820	177.31857	889.59900	1346.73181	-75.51487	874.99457	1346.39990	50.08265	945.62616	1126.20825	207.95833	487.25339	1408.43665	-52.21099	445.55148	1205.63135	218.88148	154.93390	1430.05066	-47.66775	181.59973	984.14227	
405	4.040	39.41237	1523.39746	1442.09192							-63.40600	1549.97559	1336.23315	241.22050	1349.04614	1202.56653	-120.76080	1352.22900	1219.91150	73.65771	1244.84375	1352.59814	52.01807	1399.04517	1163.29065	311.22787	1016.07104	1199.52563	-196.90201	1006.94440	1207.99341	309.46103	837.20056	1308.00317	-177.91284	826.46552	1344.55591	178.95758	892.20313	1357.17554	-73.12245	877.31262	1356.30676	51.69788	947.66974	1137.31653	208.29628	487.09653	1413.88611	-51.34210	444.64563	1223.01538	218.89305	155.04547	1431.41357	-47.33281	186.78523	994.32111	
406	4.050	40.20531	1525.49438	1452.22314							-61.57348	1551.43640	1345.31567	242.59993	1351.44788	1213.50867	-118.64672	1354.86536	1229.10706	75.34444	1247.29602	1362.34998	54.35678	1401.06726	1173.15637	313.33142	1017.77374	1210.55811	-194.82567	1009.73914	1213.82397	311.55618	839.19922	1320.19128	-177.14906	827.65271	1348.98816	180.49417	895.30762	1367.96167	-71.42439	880.09399	1365.75110	53.14536	949.62585	1147.31567	209.03030	487.00262	1419.74634	-51.71376	443.71912	1241.53296	218.69902	154.59599	1432.49817	-46.87741	193.00807	1006.00958	
407	4.060	41.65710	1527.23621	1460.67212							-60.99484	1553.59741	1354.53601	244.57141	1353.97046	1223.75098	-116.46557	1357.38184	1238.13611	76.80420	1250.08240	1372.56482	56.42830	1403.09814	1182.61914	315.77539	1020.80054	1222.65210	-192.61848	1012.91388	1221.56555	313.93893	842.71704	1332.25732	-177.00192	829.19183	1353.47192	181.87613	897.78833	1379.05957	-69.39517	882.19336	1374.78809	54.68418	951.89825	1157.77808	210.86653	487.23663	1424.62488	-51.62351	443.37115	1261.47473	218.98224	154.61005	1433.97119	-46.61460	199.52962	1018.46155	
408	4.070	41.74845	1529.59351	1471.03882							-59.64559	1555.59167	1363.54077	246.57033	1356.60754	1234.47632	-114.47621	1359.90771	1246.85925	78.06731	1252.04529	1382.14233	58.85186	1404.91492	1192.43640	317.56210	1023.19751	1233.57019	-190.90207	1016.12860	1227.92993	315.12341	845.54181	1344.69556	-176.07538	830.14917	1358.12219	183.09770	899.88031	1389.05200	-68.26564	884.82928	1383.80762	56.31744	953.69788	1167.44055	211.96036	486.85510	1428.85315	-53.30727	443.85397	1280.73364	218.83788	154.31224	1435.23120	-45.98558	205.72746	1031.81616	
409	4.080	42.36932	1531.51807	1480.40234							-58.92468	1557.09827	1371.19519	248.71548	1357.85608	1244.67151	-112.55941	1361.91699	1255.65039	79.07033	1254.29504	1392.12964	60.21339	1406.99585	1202.54126	319.79752	1025.48657	1245.24915	-189.19807	1018.73639	1233.78625	317.56848	848.59363	1356.93677	-175.48451	831.91858	1362.70300	183.95085	901.75000	1398.55237	-66.41229	886.24261	1392.36560	59.00748	954.70306	1176.87183	212.28893	487.24176	1434.05420	-51.62729	443.21326	1301.24927	218.58707	154.37453	1436.10059	-46.33633	212.76599	1046.98962	
410	4.090	43.04863	1533.48572	1489.27356	160.98509	1595.62915	1331.18726				-58.55360	1558.79871	1380.92725	250.49217	1360.82300	1255.96008	-110.72487	1363.96179	1264.05322	79.56541	1256.15271	1402.03174	62.57322	1409.06128	1212.75403	323.14438	1027.57043	1256.50330	-187.11478	1022.40033	1237.70422	318.84018	851.48376	1369.30408	-175.58113	833.42194	1367.80347	185.11234	902.55017	1408.43127	-65.46832	888.14331	1400.44043	61.14276	956.60681	1185.96362	212.38493	486.76694	1438.19495	-50.92249	443.59872	1321.24890	218.71669	154.32956	1436.72314	-45.85256	219.81331	1062.26196	
411	4.100	43.25275	1535.37048	1498.38940	162.22920	1596.74805	1340.65845				-57.59387	1560.71204	1388.98181	252.33563	1362.89856	1268.26147	-109.07713	1365.77515	1272.22510	80.25473	1257.17859	1410.41492	64.61766	1410.64429	1222.08911	324.76080	1030.09631	1268.77869	-183.81184	1024.47327	1241.54590	320.21436	853.13623	1381.32080	-175.64374	835.08923	1373.00354	185.85208	903.13379	1417.77527	-65.69775	889.90900	1408.86035	63.70042	957.77350	1194.27576	213.39920	486.58914	1442.39465	-51.46041	444.71378	1342.51892	218.48079	154.21162	1437.88000	-46.05401	226.56345	1079.40637	
412	4.110	43.07441	1537.38623	1508.59583	163.04085	1598.96594	1350.79041				-56.99253	1562.81580	1398.04736	253.38036	1364.19678	1279.16150	-107.29752	1367.22986	1280.20740	80.29063	1259.15503	1420.70264	66.48871	1412.62964	1229.59155	327.00015	1031.71228	1281.27405	-184.98201	1026.02710	1252.09888	321.91757	856.13190	1394.32312	-175.19980	835.96344	1378.32898	186.56407	903.07324	1427.52539	-65.19616	891.73059	1416.49475	66.47659	958.45081	1203.35632	213.61678	486.53531	1446.44739	-51.98182	446.26392	1363.26318	218.73068	154.30511	1439.01404	-46.33930	233.00172	1097.25696	
413	4.120	43.19388	1538.81982	1517.09265	164.00099	1600.42957	1360.42664				-56.62713	1563.77356	1407.34448	254.61888	1366.19604	1291.67114	-105.99495	1368.41394	1287.95435	79.81507	1259.87769	1429.67493	67.95542	1413.69800	1240.76147	329.99039	1033.38232	1292.51563	-183.51318	1027.80579	1258.29089	324.19827	857.87152	1406.78174	-176.36998	837.83398	1384.16821	186.71652	903.08582	1436.60095	-65.48540	892.82831	1423.93555	68.24303	958.99634	1211.96594	213.45673	486.30435	1451.40405	-53.09558	448.95255	1383.79248	218.14706	153.87155	1440.70789	-46.42270	239.57915	1114.93726	
